HIERARCHY
ROOT Root
{
  OFFSET 0.0 0.0 0.0
  CHANNELS 6 Xposition Yposition Zposition Zrotation Yrotation Xrotation
  JOINT Hips
  {
    OFFSET 0.0 100.0 0.0
    CHANNELS 6 Xposition Yposition Zposition Zrotation Yrotation Xrotation
    JOINT Spine1
    {
      OFFSET -0.013727 5.003763 -0.053727
      CHANNELS 3 Zrotation Yrotation Xrotation
      JOINT Spine2
      {
        OFFSET -0.0 7.125301 -0.029825
        CHANNELS 3 Zrotation Yrotation Xrotation
        JOINT Chest
        {
          OFFSET -1e-06 7.550063 -0.815971
          CHANNELS 3 Zrotation Yrotation Xrotation
          JOINT Neck1
          {
            OFFSET -0.181677 26.311295 -0.553348
            CHANNELS 3 Zrotation Yrotation Xrotation
            JOINT Neck2
            {
              OFFSET -3e-06 7.709397 2.302585
              CHANNELS 3 Zrotation Yrotation Xrotation
              JOINT Head
              {
                OFFSET -5e-06 6.128916 1.953709
                CHANNELS 3 Zrotation Yrotation Xrotation
                JOINT HeadEnd
                {
                  OFFSET 0.003598 16.065403 -1.835379
                  CHANNELS 3 Zrotation Yrotation Xrotation
                }
                JOINT Jaw
                {
                  OFFSET 0.002637 0.475592 3.094941
                  CHANNELS 3 Zrotation Yrotation Xrotation
                }
                JOINT LeftEye
                {
                  OFFSET 3.206381 5.380205 7.586883
                  CHANNELS 3 Zrotation Yrotation Xrotation
                }
                JOINT RightEye
                {
                  OFFSET -3.22244 5.361869 7.558234
                  CHANNELS 3 Zrotation Yrotation Xrotation
                }
              }
            }
          }
          JOINT LeftShoulder
          {
            OFFSET 1.621652 23.237164 5.113413
            CHANNELS 3 Zrotation Yrotation Xrotation
            JOINT LeftArm
            {
              OFFSET 14.919846 2e-06 -5.502326
              CHANNELS 3 Zrotation Yrotation Xrotation
              JOINT LeftForeArm
              {
                OFFSET 28.739307 0.0 -0.002588
                CHANNELS 3 Zrotation Yrotation Xrotation
                JOINT LeftHand
                {
                  OFFSET 27.093981 -1e-06 0.002609
                  CHANNELS 3 Zrotation Yrotation Xrotation
                  JOINT LeftHandThumb1
                  {
                    OFFSET 2.276482 -1.392045 3.191413
                    CHANNELS 3 Zrotation Yrotation Xrotation
                    JOINT LeftHandThumb2
                    {
                      OFFSET 4.012836 -1.828127 1.641654
                      CHANNELS 3 Zrotation Yrotation Xrotation
                      JOINT LeftHandThumb3
                      {
                        OFFSET 2.798515 0.0 -3e-06
                        CHANNELS 3 Zrotation Yrotation Xrotation
                        JOINT LeftHandThumbEnd
                        {
                          OFFSET 3.180793 -4e-06 4e-06
                          CHANNELS 3 Zrotation Yrotation Xrotation
                        }
                      }
                    }
                  }
                  JOINT LeftHandIndex1
                  {
                    OFFSET 3.247555 -0.531998 2.296169
                    CHANNELS 3 Zrotation Yrotation Xrotation
                    JOINT LeftHandIndex2
                    {
                      OFFSET 6.364578 0.01206 0.1786
                      CHANNELS 3 Zrotation Yrotation Xrotation
                      JOINT LeftHandIndex3
                      {
                        OFFSET 3.662364 0.0 0.0
                        CHANNELS 3 Zrotation Yrotation Xrotation
                        JOINT LeftHandIndex4
                        {
                          OFFSET 2.329242 4e-06 4e-06
                          CHANNELS 3 Zrotation Yrotation Xrotation
                          JOINT LeftHandIndexEnd
                          {
                            OFFSET 2.759615 -0.180537 -0.113024
                            CHANNELS 3 Zrotation Yrotation Xrotation
                          }
                        }
                      }
                    }
                  }
                  JOINT LeftHandMiddle1
                  {
                    OFFSET 3.163495 0.240981 1.000332
                    CHANNELS 3 Zrotation Yrotation Xrotation
                    JOINT LeftHandMiddle2
                    {
                      OFFSET 6.19078 -0.259278 -1.002548
                      CHANNELS 3 Zrotation Yrotation Xrotation
                      JOINT LeftHandMiddle3
                      {
                        OFFSET 4.35652 -4e-06 -1e-06
                        CHANNELS 3 Zrotation Yrotation Xrotation
                        JOINT LeftHandMiddle4
                        {
                          OFFSET 2.996877 -8e-06 0.0
                          CHANNELS 3 Zrotation Yrotation Xrotation
                          JOINT LeftHandMiddleEnd
                          {
                            OFFSET 2.304287 -0.294569 -0.031741
                            CHANNELS 3 Zrotation Yrotation Xrotation
                          }
                        }
                      }
                    }
                  }
                  JOINT LeftHandRing1
                  {
                    OFFSET 2.882643 -0.053652 -0.322543
                    CHANNELS 3 Zrotation Yrotation Xrotation
                    JOINT LeftHandRing2
                    {
                      OFFSET 5.854541 -0.486202 -1.373841
                      CHANNELS 3 Zrotation Yrotation Xrotation
                      JOINT LeftHandRing3
                      {
                        OFFSET 4.350578 0.0 3e-06
                        CHANNELS 3 Zrotation Yrotation Xrotation
                        JOINT LeftHandRing4
                        {
                          OFFSET 2.651321 7e-06 2e-06
                          CHANNELS 3 Zrotation Yrotation Xrotation
                          JOINT LeftHandRingEnd
                          {
                            OFFSET 1.936105 0.077687 -7.1e-05
                            CHANNELS 3 Zrotation Yrotation Xrotation
                          }
                        }
                      }
                    }
                  }
                  JOINT LeftHandPinky1
                  {
                    OFFSET 2.8655 -0.310005 -1.600378
                    CHANNELS 3 Zrotation Yrotation Xrotation
                    JOINT LeftHandPinky2
                    {
                      OFFSET 5.087849 -1.331141 -1.77123
                      CHANNELS 3 Zrotation Yrotation Xrotation
                      JOINT LeftHandPinky3
                      {
                        OFFSET 3.070974 4e-06 0.0
                        CHANNELS 3 Zrotation Yrotation Xrotation
                        JOINT LeftHandPinky4
                        {
                          OFFSET 1.549672 0.0 1e-06
                          CHANNELS 3 Zrotation Yrotation Xrotation
                          JOINT LeftHandPinkyEnd
                          {
                            OFFSET 1.944893 -0.157802 0.057219
                            CHANNELS 3 Zrotation Yrotation Xrotation
                          }
                        }
                      }
                    }
                  }
                }
              }
            }
          }
          JOINT RightShoulder
          {
            OFFSET -1.380118 23.180309 5.214158
            CHANNELS 3 Zrotation Yrotation Xrotation
            JOINT RightArm
            {
              OFFSET -15.037196 1.2e-05 -5.545604
              CHANNELS 3 Zrotation Yrotation Xrotation
              JOINT RightForeArm
              {
                OFFSET -28.736639 2e-06 -0.002597
                CHANNELS 3 Zrotation Yrotation Xrotation
                JOINT RightHand
                {
                  OFFSET -27.133619 -0.0 0.002613
                  CHANNELS 3 Zrotation Yrotation Xrotation
                  JOINT RightHandThumb1
                  {
                    OFFSET -2.274032 -1.383988 3.163127
                    CHANNELS 3 Zrotation Yrotation Xrotation
                    JOINT RightHandThumb2
                    {
                      OFFSET -4.011429 -1.827466 1.640914
                      CHANNELS 3 Zrotation Yrotation Xrotation
                      JOINT RightHandThumb3
                      {
                        OFFSET -2.794935 -4e-06 -3e-06
                        CHANNELS 3 Zrotation Yrotation Xrotation
                        JOINT RightHandThumbEnd
                        {
                          OFFSET -3.183852 4e-06 1e-06
                          CHANNELS 3 Zrotation Yrotation Xrotation
                        }
                      }
                    }
                  }
                  JOINT RightHandIndex1
                  {
                    OFFSET -3.253266 -0.520057 2.282866
                    CHANNELS 3 Zrotation Yrotation Xrotation
                    JOINT RightHandIndex2
                    {
                      OFFSET -6.341917 0.012471 0.178266
                      CHANNELS 3 Zrotation Yrotation Xrotation
                      JOINT RightHandIndex3
                      {
                        OFFSET -3.654871 -8e-06 -0.0
                        CHANNELS 3 Zrotation Yrotation Xrotation
                        JOINT RightHandIndex4
                        {
                          OFFSET -2.327586 0.0 1e-06
                          CHANNELS 3 Zrotation Yrotation Xrotation
                          JOINT RightHandIndexEnd
                          {
                            OFFSET -2.76179 -0.180656 -0.113078
                            CHANNELS 3 Zrotation Yrotation Xrotation
                          }
                        }
                      }
                    }
                  }
                  JOINT RightHandMiddle1
                  {
                    OFFSET -3.168106 0.246593 1.00103
                    CHANNELS 3 Zrotation Yrotation Xrotation
                    JOINT RightHandMiddle2
                    {
                      OFFSET -6.180828 -0.258836 -1.000895
                      CHANNELS 3 Zrotation Yrotation Xrotation
                      JOINT RightHandMiddle3
                      {
                        OFFSET -4.348901 0.0 -0.0
                        CHANNELS 3 Zrotation Yrotation Xrotation
                        JOINT RightHandMiddle4
                        {
                          OFFSET -3.00024 -4e-06 -2e-06
                          CHANNELS 3 Zrotation Yrotation Xrotation
                          JOINT RightHandMiddleEnd
                          {
                            OFFSET -2.30252 -0.29437 -0.031706
                            CHANNELS 3 Zrotation Yrotation Xrotation
                          }
                        }
                      }
                    }
                  }
                  JOINT RightHandRing1
                  {
                    OFFSET -2.88569 -0.067952 -0.308858
                    CHANNELS 3 Zrotation Yrotation Xrotation
                    JOINT RightHandRing2
                    {
                      OFFSET -5.854198 -0.48613 -1.373731
                      CHANNELS 3 Zrotation Yrotation Xrotation
                      JOINT RightHandRing3
                      {
                        OFFSET -4.33881 -4e-06 -0.0
                        CHANNELS 3 Zrotation Yrotation Xrotation
                        JOINT RightHandRing4
                        {
                          OFFSET -2.654903 -4e-06 4e-06
                          CHANNELS 3 Zrotation Yrotation Xrotation
                          JOINT RightHandRingEnd
                          {
                            OFFSET -1.933568 0.077527 -5.2e-05
                            CHANNELS 3 Zrotation Yrotation Xrotation
                          }
                        }
                      }
                    }
                  }
                  JOINT RightHandPinky1
                  {
                    OFFSET -2.866425 -0.342796 -1.584145
                    CHANNELS 3 Zrotation Yrotation Xrotation
                    JOINT RightHandPinky2
                    {
                      OFFSET -5.091371 -1.332055 -1.772385
                      CHANNELS 3 Zrotation Yrotation Xrotation
                      JOINT RightHandPinky3
                      {
                        OFFSET -3.062664 -4e-06 1e-06
                        CHANNELS 3 Zrotation Yrotation Xrotation
                        JOINT RightHandPinky4
                        {
                          OFFSET -1.546529 4e-06 -2e-06
                          CHANNELS 3 Zrotation Yrotation Xrotation
                          JOINT RightHandPinkyEnd
                          {
                            OFFSET -1.945119 -0.157718 0.057211
                            CHANNELS 3 Zrotation Yrotation Xrotation
                          }
                        }
                      }
                    }
                  }
                }
              }
            }
          }
        }
      }
    }
    JOINT LeftLeg
    {
      OFFSET 10.043214 -8.434526 2.595655
      CHANNELS 3 Zrotation Yrotation Xrotation
      JOINT LeftShin
      {
        OFFSET -1e-06 -43.221752 -0.802913
        CHANNELS 3 Zrotation Yrotation Xrotation
        JOINT LeftFoot
        {
          OFFSET 1e-06 -42.155094 -3.481523
          CHANNELS 3 Zrotation Yrotation Xrotation
          JOINT LeftToeBase
          {
            OFFSET 0.0 -5.059472 13.231529
            CHANNELS 3 Zrotation Yrotation Xrotation
            JOINT LeftToeEnd
            {
              OFFSET -0.009607 -1.647619 6.513017
              CHANNELS 3 Zrotation Yrotation Xrotation
            }
          }
        }
      }
    }
    JOINT RightLeg
    {
      OFFSET -10.047278 -8.29526 2.620317
      CHANNELS 3 Zrotation Yrotation Xrotation
      JOINT RightShin
      {
        OFFSET 1e-06 -43.362206 -0.805556
        CHANNELS 3 Zrotation Yrotation Xrotation
        JOINT RightFoot
        {
          OFFSET 2e-06 -42.117393 -3.478398
          CHANNELS 3 Zrotation Yrotation Xrotation
          JOINT RightToeBase
          {
            OFFSET -0.0 -5.079609 13.284196
            CHANNELS 3 Zrotation Yrotation Xrotation
            JOINT RightToeEnd
            {
              OFFSET 0.009532 -1.634378 6.460591
              CHANNELS 3 Zrotation Yrotation Xrotation
            }
          }
        }
      }
    }
  }
}
MOTION
Frames: 4
Frame Time: 0.03333333333333333
-18.068562 0.0 352.558289 0.0 -0.0 0.0 0.0 95.311417 0.0 1.402539 -0.216455 4.223284 -1.148278 -1.811852 4.244405 -0.713921 -3.350936 -3.414072 -1.570298 -4.968848 10.918284 1.809753 2.121751 -3.548949 -0.198086 2.519323 -3.577133 0.605728 1.779353 -23.447655 -0.000182 -0.000984 -0.005133 0.033334 0.070369 0.151877 0.736676 -3.654412 -10.581612 -0.675363 3.796372 -10.602172 -6.855678 -7.749163 15.08783 -52.971889 -12.847938 3.12118 -179.890488 -50.051701 -179.972244 -0.153306 -7.681273 -10.860227 -5.910667 9.805593 0.796388 -10.98382 -0.378861 7.149816 0.002925 8.76995 0.000667 -16.00226 18.62067 6.339329 -1.855853 2.493145 -2.511327 -10.145053 4.67828 4.626462 -20.934771 -0.000201 0.008243 -21.181946 2.45136 -3.577216 -0.003393 -0.001003 3.2e-05 -1.370468 2.235898 -0.748004 -21.314054 0.591595 3.031565 -13.80858 -0.001896 0.00963 -23.858435 -0.236377 -0.839065 -60.528385 2.6724 -1.327957 -0.290348 1.673907 0.825769 -14.228452 0.101723 1.312495 -34.199276 -0.277558 0.998268 -20.046228 0.975627 1.223384 -0.004606 -0.00045 0.010869 -3.417815 0.777121 0.512848 -15.932667 -3.151179 2.986015 -6.332319 -0.003097 0.01404 -18.104893 3.657195 -4.888608 8.2e-05 0.006343 -0.006041 14.917673 -1.886851 18.393324 55.623871 2.144149 19.63802 178.110977 59.976753 179.201401 -8.349319 7.084393 -7.416839 2.238423 -5.261517 -3.191302 14.30649 -0.842325 6.944369 0.011609 -12.704793 0.002578 15.588645 -17.137358 2.591496 1.650217 -1.95496 -2.875507 4.727411 -4.173491 4.999348 11.013362 -0.001804 -2.3e-05 12.093847 -3.741169 -2.860272 0.009718 0.000953 0.003672 1.282447 -1.923179 -1.486022 14.762546 0.561641 3.86788 14.216656 -1.347262 -6.647171 19.564066 0.139609 -0.642394 49.565502 -0.440889 -6.128693 0.344554 -1.510043 -0.023336 20.171047 3.681697 2.321979 18.754873 -0.00748 0.002064 10.738531 -0.48166 1.396019 0.000779 -0.000306 0.0003 3.249299 0.299675 -0.570582 21.475351 11.845633 2.277502 8.151149 -0.000713 0.005985 18.391209 -3.810001 -4.936676 0.001292 0.000585 -0.000562 -1.65132 4.35417 3.160865 0.075471 -0.220387 24.078489 1.905466 -6.07972 -20.104797 1.798929 -1.821744 -5.341229 -0.000309 -0.00136 0.000826 -0.942915 -2.64815 -40.071419 -0.295559 -0.58003 66.598907 -3.814609 -12.293413 -6.739256 -1.507753 1.058243 -3.899824 -0.00184 -0.003659 -0.012405 
-18.768814 0.0 362.575348 0.0 -0.0 0.0 0.0 97.527603 0.0 -1.267941 -1.443241 5.489151 -0.234724 -1.858034 3.228463 -0.33281 -4.490425 -3.719839 0.317152 -5.973826 10.43545 0.750831 2.450541 -2.8053 0.163209 4.057891 -3.698951 0.042204 3.227704 -22.293428 0.000755 -0.00106 -0.004859 0.033151 0.055133 0.131933 0.724148 -3.704546 -10.71565 -0.661713 3.819031 -10.705216 -4.980822 -8.647765 14.080256 -54.547733 -15.575533 0.450915 -179.744766 -47.477428 179.923996 0.805238 -8.826073 -13.350659 -5.931074 9.796753 0.839785 -10.915878 -0.313615 7.17447 0.002157 8.790143 0.013525 -15.96106 18.565582 6.506539 -1.853127 2.488878 -2.513883 -10.177064 4.694513 4.624564 -21.030914 -0.005768 0.002143 -21.302881 2.474534 -3.595765 -0.006311 -0.002071 -0.001154 -1.362085 2.261593 -0.744013 -21.368967 0.557085 3.030358 -13.845401 -0.008009 0.0182 -23.925102 -0.236011 -0.832711 -61.08614 2.611655 -1.199883 -0.296901 1.696558 0.843357 -14.241486 0.057309 1.300165 -34.351662 -0.293804 0.973103 -20.100037 0.946972 1.230471 0.009358 0.005602 0.000596 -3.472049 0.804274 0.49538 -15.937761 -3.189251 2.991676 -6.34021 -0.001758 0.00603 -18.167561 3.663839 -4.910299 0.003721 -0.002032 -0.012055 15.263839 -2.060629 18.914888 53.490623 -3.883547 17.925295 177.573776 58.354939 178.301208 -7.643915 8.419541 -7.556565 2.277755 -5.260335 -3.19899 14.256155 -0.847014 6.94563 0.005385 -12.696238 0.003383 15.627337 -17.280888 2.648136 1.666133 -1.956846 -2.880157 4.742009 -4.171987 5.000852 11.016738 0.000588 0.00209 12.117955 -3.728196 -2.848493 0.010198 -0.001917 -0.000186 1.290831 -1.936468 -1.488441 14.815095 0.579546 3.868353 14.275372 -1.345307 -6.653838 19.674944 0.134005 -0.646287 49.420547 -0.661067 -6.000298 0.352238 -1.52181 -0.023537 20.244602 3.699397 2.32285 18.81595 -6e-05 0.00268 10.776744 -0.477994 1.401062 -2e-06 0.0 -0.0 3.292218 0.297042 -0.572065 21.506712 11.859038 2.263907 8.185222 0.001037 -0.001868 18.434931 -3.80419 -4.945418 0.006333 0.001442 -0.001071 1.129528 3.62847 10.478271 0.129784 -0.275615 17.640854 1.862207 -4.196228 -5.986236 2.102277 -1.860585 -17.253279 -0.000558 -0.000909 -0.003469 1.935733 -0.231025 -41.204422 -0.059203 -0.242654 47.221745 -2.386219 -12.294129 -4.437664 -1.48844 1.027643 -3.408915 7.1e-05 0.001494 -0.004984 
-19.683683 0.0 373.379974 0.0 -0.0 0.0 0.0 99.630615 0.0 -1.81229 -2.291887 6.044323 -0.263319 -2.00121 2.2124 -0.12651 -5.046374 -4.107368 1.120951 -6.714502 10.324018 -0.053621 2.894562 -1.958092 0.418248 4.494231 -3.735798 -0.547193 4.412375 -20.858177 0.000844 1.9e-05 -0.004541 0.029118 0.017696 0.071813 0.700153 -3.752296 -10.787695 -0.649107 3.797744 -10.766742 -3.806064 -9.268152 13.467832 -56.282356 -17.038242 -1.371537 -179.641464 -45.395538 179.838913 1.629823 -9.742335 -14.560055 -5.909369 9.757663 0.823057 -10.938976 -0.325614 7.18529 -0.002216 8.810026 -0.005209 -15.800627 18.37315 6.359759 -1.845082 2.492595 -2.524463 -10.199624 4.691124 4.620217 -21.003147 -0.005666 0.002124 -21.263559 2.448772 -3.618443 0.006542 -0.00066 0.001666 -1.366464 2.260162 -0.760513 -21.383095 0.56654 3.010238 -13.857533 0.005844 0.024155 -23.966764 -0.220216 -0.86624 -61.008255 2.648719 -1.271784 -0.295454 1.686955 0.814281 -14.23443 0.074298 1.312443 -34.31921 -0.279677 0.972857 -20.075542 0.964463 1.218859 0.001407 -0.004393 0.012509 -3.468467 0.801248 0.478207 -15.929468 -3.180235 3.01344 -6.356048 0.004458 0.00734 -18.125797 3.627978 -4.915166 0.005353 0.00536 -0.019573 14.870555 -2.393684 19.935253 53.797775 -8.364244 16.943478 177.903046 58.670788 178.251404 -7.060147 9.76445 -6.573365 2.239973 -5.170942 -3.096122 14.284845 -0.871128 6.98748 0.002601 -12.725159 -0.004711 15.713261 -17.320633 2.724897 1.669079 -1.953664 -2.884039 4.73028 -4.18903 4.988945 11.024184 0.002398 0.000296 12.145302 -3.755107 -2.880361 -0.000158 -0.006492 -0.001932 1.296099 -1.947153 -1.503168 14.811655 0.577864 3.867963 14.24511 -1.339806 -6.666643 19.63825 0.149536 -0.647128 49.474049 -0.721741 -5.975133 0.355145 -1.54723 -0.03773 20.226929 3.727422 2.328503 18.78466 0.00168 -0.000453 10.744706 -0.479453 1.402067 0.01112 0.000279 -0.000171 3.286388 0.264312 -0.598461 21.513062 11.896171 2.294778 8.155728 0.002233 0.00066 18.409983 -3.802689 -4.946431 5e-05 -0.000575 0.001084 1.186672 2.579267 14.201691 -0.045047 -0.286448 16.161827 2.718778 -2.548963 12.30603 2.200776 -1.654044 -21.085342 -0.001101 0.000446 -0.00395 2.173116 1.039351 -37.763432 0.119633 0.012 25.64292 -0.18573 -10.220306 0.922503 -1.44029 1.03311 -3.446558 -0.001186 -0.005111 0.00426 
-20.698751 0.0 384.437805 0.0 -0.0 0.0 0.0 100.559219 0.0 -0.945129 -2.621583 5.817187 -0.748759 -2.061378 1.728887 -0.080246 -4.988729 -4.213675 1.173374 -6.967343 10.05832 -0.857739 3.170998 -1.271968 0.515693 4.242601 -3.68167 -0.9425 4.787699 -19.736469 -0.001345 -0.00293 0.006593 0.031825 0.023733 0.058381 0.691305 -3.740644 -10.781018 -0.639072 3.790141 -10.739588 -3.641483 -9.466838 13.086546 -57.522324 -17.923847 -2.254672 -179.467163 -44.003326 179.517776 1.818541 -10.452562 -14.631276 -5.857871 9.867431 0.690134 -10.965919 -0.397268 7.147363 -0.024916 8.763714 -0.008574 -15.645214 18.329651 6.11075 -1.830468 2.485898 -2.497886 -10.167371 4.678769 4.634874 -20.985653 -0.005847 -0.000713 -21.231108 2.431373 -3.590515 -0.000632 0.003541 0.011322 -1.361091 2.225636 -0.725313 -21.324005 0.607055 2.993671 -13.804579 -0.007998 0.01071 -23.864859 -0.241939 -0.830881 -60.523712 2.688477 -1.599429 -0.279417 1.662253 0.849969 -14.200524 0.08679 1.301002 -34.169987 -0.26265 0.955299 -19.99881 0.973055 1.184745 -0.002199 0.001426 -5.8e-05 -3.420077 0.766155 0.517365 -15.931579 -3.150695 2.994249 -6.329139 -0.017129 0.013036 -18.121439 3.665732 -4.911137 0.004062 0.005415 -0.003886 14.416639 -2.693403 20.302917 55.018036 -11.607923 16.3909 178.454514 59.423878 178.687729 -6.344278 10.421203 -6.092616 2.230919 -5.241238 -3.143891 14.285351 -0.849122 6.969129 -0.001591 -12.694887 0.008364 15.75647 -17.284056 2.664249 1.663752 -1.950634 -2.88125 4.725128 -4.180429 4.992451 11.023208 0.005709 -0.000121 12.11151 -3.734388 -2.860192 -0.00598 -0.00678 -0.001864 1.286074 -1.926214 -1.493321 14.798682 0.571304 3.861559 14.247951 -1.335431 -6.654357 19.61606 0.146292 -0.646125 49.514481 -0.63838 -6.111623 0.346449 -1.508844 -0.034972 20.228731 3.702682 2.312916 18.782452 0.002558 -0.001682 10.773494 -0.483175 1.403207 -0.019691 -0.000462 -0.000211 3.26454 0.310981 -0.588587 21.49674 11.83753 2.25913 8.148942 -0.000495 0.001314 18.361124 -3.796929 -4.930046 -0.007453 0.000392 0.001706 -0.769665 0.865715 13.83951 0.064833 -0.262329 23.363794 0.774473 -1.870628 20.749897 1.985175 -1.824846 -7.141746 -0.000907 -0.001673 0.009753 1.478915 1.132555 -34.198414 0.071735 0.192264 12.178514 2.343071 -8.509089 7.390049 -1.408068 0.974325 -3.771118 0.001919 -0.004487 -0.003164 
